# xmcd
#
# Track frame offsets:
#	150
#	21140
#	33202
#	48481
#	66667
#	78316
#	93579
#	109198
#	121604
#	147608
#	156119
#
# Disc length: 2311
#
# Revision: 1
# Processed by: cddbd v1.5.1PL0 Copyright (c) Steve Scherf et al.
# Submitted via: dBpowerAMP V4.0
# Normalized: r0:TRMNUM
#
DISCID=9209050b
DTITLE=Sixie und Fuchs - Weil die Sonne niemals weint
DYEAR=2003
DGENRE=Funk
TTITLE0=Auf jetzt!
TTITLE1=Der Imperativ
TTITLE2=Ein Teufelskerl
TTITLE3=Feel Good
TTITLE4=Die Hoffnung
TTITLE5=Der Metzgermeister
TTITLE6=Des Gärtners Kanne
TTITLE7=Die schönste Nebensache
TTITLE8=Alles Zufall?
TTITLE9=Alles unter zwei
TTITLE10=Funky Fritz
EXTD=order @ www.sixieundfuchs.de! Germany's finest in Funkrock
EXTT0=
EXTT1=
EXTT2=
EXTT3=
EXTT4=
EXTT5=
EXTT6=
EXTT7=
EXTT8=
EXTT9=
EXTT10=
PLAYORDER=
